<?xml version="1.0" standalone="no"?>
<!DOCTYPE svg PUBLIC "-//W3C//DTD SVG 20010904//EN"
 "http://www.w3.org/TR/2001/REC-SVG-20010904/DTD/svg10.dtd">
<svg version="1.0" xmlns="http://www.w3.org/2000/svg"
 width="1024.000000pt" height="1024.000000pt" viewBox="0 0 1024.000000 1024.000000"
 preserveAspectRatio="xMidYMid meet">
<metadata>
Created by potrace 1.14, written by Peter Selinger 2001-2017
</metadata>
<g transform="translate(0.000000,1024.000000) scale(0.100000,-0.100000)"
fill="#000000" stroke="none">
<path d="M3352 7459 c-128 -12 -295 -47 -417 -86 -490 -158 -802 -487 -892
-940 -24 -122 -23 -385 1 -507 42 -212 121 -359 277 -515 205 -205 392 -290
1188 -536 276 -85 495 -171 601 -237 112 -69 237 -193 278 -276 48 -98 66
-195 59 -326 -3 -61 -13 -133 -21 -159 -69 -217 -249 -361 -526 -420 -130 -27
-401 -29 -545 -3 -268 49 -456 147 -634 331 -50 51 -113 129 -142 172 -49 75
-139 251 -139 271 0 6 -29 20 -64 32 l-65 21 -243 -142 c-134 -78 -245 -143
-247 -145 -10 -9 77 -240 127 -339 210 -411 643 -723 1155 -834 299 -65 686
-68 972 -9 595 122 990 505 1092 1058 24 131 24 412 0 532 -48 243 -123 389
-285 559 -231 243 -462 354 -1197 575 -445 134 -610 203 -737 309 -81 66 -130
129 -160 203 -29 76 -32 257 -5 344 47 152 200 292 394 359 199 69 505 78 718
22 244 -65 450 -244 583 -509 39 -77 44 -83 88 -98 26 -9 56 -16 67 -16 23 0
487 268 493 285 3 6 -9 52 -27 101 -162 460 -558 791 -1066 893 -193 39 -467
51 -681 30z"/>
<path d="M6950 6175 c-574 -87 -1045 -490 -1235 -1057 -69 -208 -95 -380 -95
-638 0 -258 26 -430 95 -638 82 -244 206 -445 389 -628 225 -224 488 -363 799
-421 131 -25 467 -25 589 0 343 69 618 247 797 516 59 89 136 230 129 236 -2
1 -124 73 -272 158 l-270 156 -51 -77 c-189 -282 -444 -399 -769 -352 -298 43
-548 261 -652 567 -59 175 -69 244 -69 483 0 239 10 308 69 483 104 306 354
524 652 567 325 47 580 -70 769 -352 l51 -77 270 156 c148 85 270 157 272 158
7 6 -70 147 -129 236 -176 264 -440 438 -774 511 -121 26 -429 33 -565 13z"/>
</g>
</svg>
